<svg width="21" height="26" viewBox="0 0 21 26" xmlns="http://www.w3.org/2000/svg"><title>Group 14</title><g fill="#FFF" fill-rule="evenodd"><path d="M17.336 13.413c-.029-3.223 2.64-4.79 2.761-4.864-1.51-2.203-3.853-2.504-4.676-2.528-1.967-.207-3.875 1.177-4.877 1.177-1.022 0-2.565-1.157-4.228-1.123-2.14.033-4.142 1.272-5.24 3.196C-1.19 13.194.5 18.96 2.671 22.131c1.086 1.552 2.355 3.286 4.016 3.225 1.625-.067 2.232-1.036 4.193-1.036 1.943 0 2.513 1.036 4.207.997 1.744-.028 2.842-1.56 3.89-3.127 1.255-1.78 1.76-3.533 1.78-3.623-.042-.014-3.388-1.29-3.42-5.154zM13.822 4.089c.874-1.093 1.472-2.58 1.306-4.089-1.265.056-2.847.875-3.758 1.944-.806.942-1.526 2.486-1.34 3.938 1.42.106 2.88-.717 3.792-1.793z"/></g></svg>